<mxfile host="app.diagrams.net" agent="Mozilla/5.0 (Windows NT 10.0; Win64; x64) AppleWebKit/537.36 (KHTML, like Gecko) Chrome/139.0.0.0 Safari/537.36" version="28.1.1">
  <diagram name="Page-1" id="s0TZvvGfvFI3ZAg0AaeL">
    <mxGraphModel dx="1412" dy="735" grid="1" gridSize="10" guides="1" tooltips="1" connect="1" arrows="1" fold="1" page="1" pageScale="1" pageWidth="1169" pageHeight="827" math="0" shadow="0">
      <root>
        <mxCell id="0" />
        <mxCell id="1" parent="0" />
        <mxCell id="-0yB_duNghisxQLePTIA-105" value="" style="rounded=1;whiteSpace=wrap;html=1;dashed=1;" parent="1" vertex="1">
          <mxGeometry x="170" y="310" width="610" height="100" as="geometry" />
        </mxCell>
        <mxCell id="-0yB_duNghisxQLePTIA-3" value="Introduction" style="text;html=1;align=center;verticalAlign=middle;resizable=0;points=[];autosize=1;strokeColor=none;fillColor=none;" parent="1" vertex="1">
          <mxGeometry x="220" y="270" width="90" height="30" as="geometry" />
        </mxCell>
        <mxCell id="-0yB_duNghisxQLePTIA-4" value="Growth" style="text;html=1;align=center;verticalAlign=middle;resizable=0;points=[];autosize=1;strokeColor=none;fillColor=none;" parent="1" vertex="1">
          <mxGeometry x="380" y="270" width="60" height="30" as="geometry" />
        </mxCell>
        <mxCell id="-0yB_duNghisxQLePTIA-5" value="Maturity" style="text;html=1;align=center;verticalAlign=middle;resizable=0;points=[];autosize=1;strokeColor=none;fillColor=none;" parent="1" vertex="1">
          <mxGeometry x="515" y="270" width="70" height="30" as="geometry" />
        </mxCell>
        <mxCell id="-0yB_duNghisxQLePTIA-6" value="Decline" style="text;html=1;align=center;verticalAlign=middle;resizable=0;points=[];autosize=1;strokeColor=none;fillColor=none;" parent="1" vertex="1">
          <mxGeometry x="660" y="270" width="60" height="30" as="geometry" />
        </mxCell>
        <mxCell id="-0yB_duNghisxQLePTIA-76" value="Planning" style="shape=step;perimeter=stepPerimeter;whiteSpace=wrap;html=1;fixedSize=1;fillColor=#e1d5e7;strokeColor=#9673a6;" parent="1" vertex="1">
          <mxGeometry x="300" y="320" width="120" height="80" as="geometry" />
        </mxCell>
        <mxCell id="-0yB_duNghisxQLePTIA-77" value="Executing" style="shape=step;perimeter=stepPerimeter;whiteSpace=wrap;html=1;fixedSize=1;fillColor=#e1d5e7;strokeColor=#9673a6;" parent="1" vertex="1">
          <mxGeometry x="410" y="320" width="120" height="80" as="geometry" />
        </mxCell>
        <mxCell id="-0yB_duNghisxQLePTIA-78" value="Monitoring" style="shape=step;perimeter=stepPerimeter;whiteSpace=wrap;html=1;fixedSize=1;fillColor=#e1d5e7;strokeColor=#9673a6;" parent="1" vertex="1">
          <mxGeometry x="520" y="320" width="120" height="80" as="geometry" />
        </mxCell>
        <mxCell id="-0yB_duNghisxQLePTIA-79" value="Closure" style="shape=step;perimeter=stepPerimeter;whiteSpace=wrap;html=1;fixedSize=1;fillColor=#e1d5e7;strokeColor=#9673a6;" parent="1" vertex="1">
          <mxGeometry x="630" y="320" width="120" height="80" as="geometry" />
        </mxCell>
        <mxCell id="-0yB_duNghisxQLePTIA-81" value="Initiating" style="shape=step;perimeter=stepPerimeter;whiteSpace=wrap;html=1;fixedSize=1;fillColor=#e1d5e7;strokeColor=#9673a6;" parent="1" vertex="1">
          <mxGeometry x="190" y="320" width="120" height="80" as="geometry" />
        </mxCell>
        <mxCell id="-0yB_duNghisxQLePTIA-89" value="" style="shape=partialRectangle;whiteSpace=wrap;html=1;bottom=0;right=0;fillColor=none;rotation=-90;" parent="1" vertex="1">
          <mxGeometry x="375" y="-100" width="210" height="540" as="geometry" />
        </mxCell>
        <mxCell id="-0yB_duNghisxQLePTIA-91" value="" style="endArrow=none;dashed=1;html=1;dashPattern=1 3;strokeWidth=2;rounded=0;exitX=0;exitY=0.25;exitDx=0;exitDy=0;entryX=1;entryY=0.25;entryDx=0;entryDy=0;" parent="1" source="-0yB_duNghisxQLePTIA-89" target="-0yB_duNghisxQLePTIA-89" edge="1">
          <mxGeometry width="50" height="50" relative="1" as="geometry">
            <mxPoint x="430" y="210" as="sourcePoint" />
            <mxPoint x="480" y="160" as="targetPoint" />
          </mxGeometry>
        </mxCell>
        <mxCell id="-0yB_duNghisxQLePTIA-92" value="" style="endArrow=none;dashed=1;html=1;dashPattern=1 3;strokeWidth=2;rounded=0;exitX=0;exitY=0.5;exitDx=0;exitDy=0;entryX=1;entryY=0.5;entryDx=0;entryDy=0;" parent="1" source="-0yB_duNghisxQLePTIA-89" target="-0yB_duNghisxQLePTIA-89" edge="1">
          <mxGeometry width="50" height="50" relative="1" as="geometry">
            <mxPoint x="530" y="255" as="sourcePoint" />
            <mxPoint x="531" y="40" as="targetPoint" />
          </mxGeometry>
        </mxCell>
        <mxCell id="-0yB_duNghisxQLePTIA-93" value="" style="endArrow=none;dashed=1;html=1;dashPattern=1 3;strokeWidth=2;rounded=0;exitX=0;exitY=0.75;exitDx=0;exitDy=0;entryX=1;entryY=0.75;entryDx=0;entryDy=0;" parent="1" source="-0yB_duNghisxQLePTIA-89" target="-0yB_duNghisxQLePTIA-89" edge="1">
          <mxGeometry width="50" height="50" relative="1" as="geometry">
            <mxPoint x="600" y="280" as="sourcePoint" />
            <mxPoint x="600" y="70" as="targetPoint" />
          </mxGeometry>
        </mxCell>
        <mxCell id="-0yB_duNghisxQLePTIA-94" value="" style="endArrow=none;html=1;rounded=0;exitX=0;exitY=0;exitDx=0;exitDy=0;entryX=0;entryY=1;entryDx=0;entryDy=0;curved=1;" parent="1" source="-0yB_duNghisxQLePTIA-89" target="-0yB_duNghisxQLePTIA-89" edge="1">
          <mxGeometry width="50" height="50" relative="1" as="geometry">
            <mxPoint x="260" y="210" as="sourcePoint" />
            <mxPoint x="460" y="40" as="targetPoint" />
            <Array as="points">
              <mxPoint x="290" y="270" />
              <mxPoint x="360" y="260" />
              <mxPoint x="420" y="220" />
              <mxPoint x="450" y="170" />
              <mxPoint x="490" y="100" />
              <mxPoint x="540" y="60" />
              <mxPoint x="570" y="60" />
              <mxPoint x="600" y="80" />
              <mxPoint x="640" y="220" />
              <mxPoint x="690" y="260" />
            </Array>
          </mxGeometry>
        </mxCell>
        <mxCell id="-0yB_duNghisxQLePTIA-95" value="Project 1: &lt;br&gt;Initial product" style="rounded=1;whiteSpace=wrap;html=1;fillColor=#d80073;fontColor=#ffffff;strokeColor=#A50040;fontSize=10;" parent="1" vertex="1">
          <mxGeometry x="240" y="220" width="60" height="40" as="geometry" />
        </mxCell>
        <mxCell id="-0yB_duNghisxQLePTIA-96" value="Project 2: &lt;br&gt;Features" style="rounded=1;whiteSpace=wrap;html=1;fillColor=#d80073;fontColor=#ffffff;strokeColor=#A50040;fontSize=10;" parent="1" vertex="1">
          <mxGeometry x="360" y="180" width="60" height="30" as="geometry" />
        </mxCell>
        <mxCell id="-0yB_duNghisxQLePTIA-97" value="Project 3:&amp;nbsp;&lt;br&gt;Add-ons" style="rounded=1;whiteSpace=wrap;html=1;fillColor=#d80073;fontColor=#ffffff;strokeColor=#A50040;fontSize=10;" parent="1" vertex="1">
          <mxGeometry x="410" y="90" width="60" height="30" as="geometry" />
        </mxCell>
        <mxCell id="-0yB_duNghisxQLePTIA-98" value="Project 5:&amp;nbsp;&lt;br&gt;Revision" style="rounded=1;whiteSpace=wrap;html=1;fillColor=#d80073;fontColor=#ffffff;strokeColor=#A50040;fontSize=10;" parent="1" vertex="1">
          <mxGeometry x="550" y="130" width="60" height="30" as="geometry" />
        </mxCell>
        <mxCell id="-0yB_duNghisxQLePTIA-100" value="Project 4: &lt;br&gt;Revision" style="rounded=1;whiteSpace=wrap;html=1;fillColor=#d80073;fontColor=#ffffff;strokeColor=#A50040;fontSize=10;" parent="1" vertex="1">
          <mxGeometry x="510" y="90" width="60" height="30" as="geometry" />
        </mxCell>
        <mxCell id="-0yB_duNghisxQLePTIA-101" value="Project 6: &lt;br&gt;Retirement" style="rounded=1;whiteSpace=wrap;html=1;fillColor=#d80073;fontColor=#ffffff;strokeColor=#A50040;fontSize=10;" parent="1" vertex="1">
          <mxGeometry x="670" y="200" width="60" height="30" as="geometry" />
        </mxCell>
        <mxCell id="-0yB_duNghisxQLePTIA-106" value="Project Life Cycle" style="text;html=1;align=center;verticalAlign=middle;resizable=0;points=[];autosize=1;strokeColor=none;fillColor=none;" parent="1" vertex="1">
          <mxGeometry x="410" y="414" width="120" height="30" as="geometry" />
        </mxCell>
        <mxCell id="-0yB_duNghisxQLePTIA-108" value="Time" style="text;html=1;align=center;verticalAlign=middle;resizable=0;points=[];autosize=1;strokeColor=none;fillColor=none;" parent="1" vertex="1">
          <mxGeometry x="760" y="257.5" width="50" height="30" as="geometry" />
        </mxCell>
        <mxCell id="-0yB_duNghisxQLePTIA-110" value="" style="triangle;whiteSpace=wrap;html=1;fillColor=#000000;fontColor=#ffffff;strokeColor=#000000;rotation=-90;" parent="1" vertex="1">
          <mxGeometry x="205" y="54" width="10" height="10" as="geometry" />
        </mxCell>
        <mxCell id="-0yB_duNghisxQLePTIA-111" value="" style="triangle;whiteSpace=wrap;html=1;fillColor=#000000;fontColor=#ffffff;strokeColor=#000000;rotation=0;" parent="1" vertex="1">
          <mxGeometry x="750" y="270" width="10" height="10" as="geometry" />
        </mxCell>
        <mxCell id="-0yB_duNghisxQLePTIA-112" value="Sales" style="text;html=1;align=center;verticalAlign=middle;resizable=0;points=[];autosize=1;strokeColor=none;fillColor=none;rotation=-90;" parent="1" vertex="1">
          <mxGeometry x="170" y="140" width="50" height="30" as="geometry" />
        </mxCell>
        <mxCell id="-0yB_duNghisxQLePTIA-113" value="Product Life Cycle" style="text;html=1;align=center;verticalAlign=middle;resizable=0;points=[];autosize=1;strokeColor=none;fillColor=none;" parent="1" vertex="1">
          <mxGeometry x="410" y="8" width="120" height="30" as="geometry" />
        </mxCell>
        <mxCell id="Wmhno4PhPk1ZAHC8SjOo-43" style="edgeStyle=orthogonalEdgeStyle;rounded=0;orthogonalLoop=1;jettySize=auto;html=1;exitX=1;exitY=0;exitDx=0;exitDy=0;" edge="1" parent="1" source="Wmhno4PhPk1ZAHC8SjOo-1">
          <mxGeometry relative="1" as="geometry">
            <mxPoint x="730" y="550" as="targetPoint" />
          </mxGeometry>
        </mxCell>
        <UserObject label="Req ID&#x9;Req Title&#x9;SDD filename&#x9;Test Suit ID&#x9;Test File&#x9;Responsibility&#x9;Main Branch Commit&#xa;REQ1&#x9;&#x9;User Dashboard&#x9;22157726_SDD.pdf&#x9;TS-R1&#x9;dashboard.test.ts&#x9;Chris Ho&#x9;&#xa;REQ2&#x9;Earn virtual rewards&#x9;22157726_SDD.pdf&#x9;TS-R2&#x9;virtualrewards.test.js&#x9;Chris Ho&#x9;4fa28c1de&#xa;REQ3&#x9;View user data&#x9;22157726_SDD.pdf&#x9;TS-R3&#x9;create_users_table.test.sql&#x9;Chris Ho&#x9;&#xa;REQ4&#x9;Modify services&#x9;22157726_SDD.pdf&#x9;TS-R4&#x9;badgeServe.test.ts&#x9;Chris Ho&#x9;PENDING" link="Req ID&#x9;Req Title&#x9;SDD filename&#x9;Test Suit ID&#x9;Test File&#x9;Responsibility&#x9;Main Branch Commit&#xa;REQ1&#x9;&#x9;User Dashboard&#x9;22157726_SDD.pdf&#x9;TS-R1&#x9;dashboard.test.ts&#x9;Chris Ho&#x9;&#xa;REQ2&#x9;Earn virtual rewards&#x9;22157726_SDD.pdf&#x9;TS-R2&#x9;virtualrewards.test.js&#x9;Chris Ho&#x9;4fa28c1de&#xa;REQ3&#x9;View user data&#x9;22157726_SDD.pdf&#x9;TS-R3&#x9;create_users_table.test.sql&#x9;Chris Ho&#x9;&#xa;REQ4&#x9;Modify services&#x9;22157726_SDD.pdf&#x9;TS-R4&#x9;badgeServe.test.ts&#x9;Chris Ho&#x9;PENDING" id="Wmhno4PhPk1ZAHC8SjOo-1">
          <mxCell style="text;whiteSpace=wrap;html=1;" vertex="1" parent="1">
            <mxGeometry x="170" y="560" width="560" height="100" as="geometry" />
          </mxCell>
        </UserObject>
        <mxCell id="Wmhno4PhPk1ZAHC8SjOo-2" value="" style="shape=table;startSize=0;container=1;collapsible=0;childLayout=tableLayout;align=left;fontFamily=Arial;" vertex="1" parent="1">
          <mxGeometry x="170" y="660" width="670" height="200" as="geometry" />
        </mxCell>
        <mxCell id="Wmhno4PhPk1ZAHC8SjOo-3" value="" style="shape=tableRow;horizontal=0;startSize=0;swimlaneHead=0;swimlaneBody=0;strokeColor=inherit;top=0;left=0;bottom=0;right=0;collapsible=0;dropTarget=0;fillColor=none;points=[[0,0.5],[1,0.5]];portConstraint=eastwest;" vertex="1" parent="Wmhno4PhPk1ZAHC8SjOo-2">
          <mxGeometry width="670" height="40" as="geometry" />
        </mxCell>
        <mxCell id="Wmhno4PhPk1ZAHC8SjOo-4" value="Req ID" style="shape=partialRectangle;html=1;whiteSpace=wrap;connectable=0;strokeColor=#000000;overflow=hidden;fillColor=#a20025;top=0;left=0;bottom=0;right=0;pointerEvents=1;fontColor=#ffffff;shadow=0;align=left;fontFamily=Arial;" vertex="1" parent="Wmhno4PhPk1ZAHC8SjOo-3">
          <mxGeometry width="50" height="40" as="geometry">
            <mxRectangle width="50" height="40" as="alternateBounds" />
          </mxGeometry>
        </mxCell>
        <mxCell id="Wmhno4PhPk1ZAHC8SjOo-5" value="Req Title" style="shape=partialRectangle;html=1;whiteSpace=wrap;connectable=0;strokeColor=#000000;overflow=hidden;fillColor=#a20025;top=0;left=0;bottom=0;right=0;pointerEvents=1;fontColor=#ffffff;shadow=0;align=left;fontFamily=Arial;" vertex="1" parent="Wmhno4PhPk1ZAHC8SjOo-3">
          <mxGeometry x="50" width="94" height="40" as="geometry">
            <mxRectangle width="94" height="40" as="alternateBounds" />
          </mxGeometry>
        </mxCell>
        <mxCell id="Wmhno4PhPk1ZAHC8SjOo-6" value="SDD filename" style="shape=partialRectangle;html=1;whiteSpace=wrap;connectable=0;strokeColor=#000000;overflow=hidden;fillColor=#a20025;top=0;left=0;bottom=0;right=0;pointerEvents=1;fontColor=#ffffff;shadow=0;align=left;fontFamily=Arial;" vertex="1" parent="Wmhno4PhPk1ZAHC8SjOo-3">
          <mxGeometry x="144" width="106" height="40" as="geometry">
            <mxRectangle width="106" height="40" as="alternateBounds" />
          </mxGeometry>
        </mxCell>
        <mxCell id="Wmhno4PhPk1ZAHC8SjOo-7" value="Test Suit ID" style="shape=partialRectangle;html=1;whiteSpace=wrap;connectable=0;strokeColor=#000000;overflow=hidden;fillColor=#a20025;top=0;left=0;bottom=0;right=0;pointerEvents=1;fontColor=#ffffff;shadow=0;align=left;fontFamily=Arial;" vertex="1" parent="Wmhno4PhPk1ZAHC8SjOo-3">
          <mxGeometry x="250" width="70" height="40" as="geometry">
            <mxRectangle width="70" height="40" as="alternateBounds" />
          </mxGeometry>
        </mxCell>
        <mxCell id="Wmhno4PhPk1ZAHC8SjOo-8" value="Test File" style="shape=partialRectangle;html=1;whiteSpace=wrap;connectable=0;strokeColor=#000000;overflow=hidden;fillColor=#a20025;top=0;left=0;bottom=0;right=0;pointerEvents=1;fontColor=#ffffff;shadow=0;align=left;fontFamily=Arial;" vertex="1" parent="Wmhno4PhPk1ZAHC8SjOo-3">
          <mxGeometry x="320" width="145" height="40" as="geometry">
            <mxRectangle width="145" height="40" as="alternateBounds" />
          </mxGeometry>
        </mxCell>
        <mxCell id="Wmhno4PhPk1ZAHC8SjOo-9" value="Responsibility" style="shape=partialRectangle;html=1;whiteSpace=wrap;connectable=0;strokeColor=#000000;overflow=hidden;fillColor=#a20025;top=0;left=0;bottom=0;right=0;pointerEvents=1;fontColor=#ffffff;shadow=0;align=left;fontFamily=Arial;" vertex="1" parent="Wmhno4PhPk1ZAHC8SjOo-3">
          <mxGeometry x="465" width="85" height="40" as="geometry">
            <mxRectangle width="85" height="40" as="alternateBounds" />
          </mxGeometry>
        </mxCell>
        <mxCell id="Wmhno4PhPk1ZAHC8SjOo-10" value="Main Branch Commit" style="shape=partialRectangle;html=1;whiteSpace=wrap;connectable=0;strokeColor=#000000;overflow=hidden;fillColor=#a20025;top=0;left=0;bottom=0;right=0;pointerEvents=1;fontColor=#ffffff;shadow=0;align=left;fontFamily=Arial;" vertex="1" parent="Wmhno4PhPk1ZAHC8SjOo-3">
          <mxGeometry x="550" width="120" height="40" as="geometry">
            <mxRectangle width="120" height="40" as="alternateBounds" />
          </mxGeometry>
        </mxCell>
        <mxCell id="Wmhno4PhPk1ZAHC8SjOo-11" value="" style="shape=tableRow;horizontal=0;startSize=0;swimlaneHead=0;swimlaneBody=0;strokeColor=inherit;top=0;left=0;bottom=0;right=0;collapsible=0;dropTarget=0;fillColor=none;points=[[0,0.5],[1,0.5]];portConstraint=eastwest;" vertex="1" parent="Wmhno4PhPk1ZAHC8SjOo-2">
          <mxGeometry y="40" width="670" height="40" as="geometry" />
        </mxCell>
        <mxCell id="Wmhno4PhPk1ZAHC8SjOo-12" value="REQ1" style="shape=partialRectangle;html=1;whiteSpace=wrap;connectable=0;strokeColor=inherit;overflow=hidden;fillColor=none;top=0;left=0;bottom=0;right=0;pointerEvents=1;align=left;fontFamily=Arial;fontSize=11;" vertex="1" parent="Wmhno4PhPk1ZAHC8SjOo-11">
          <mxGeometry width="50" height="40" as="geometry">
            <mxRectangle width="50" height="40" as="alternateBounds" />
          </mxGeometry>
        </mxCell>
        <mxCell id="Wmhno4PhPk1ZAHC8SjOo-13" value="User Dashboard" style="shape=partialRectangle;html=1;whiteSpace=wrap;connectable=0;strokeColor=inherit;overflow=hidden;fillColor=none;top=0;left=0;bottom=0;right=0;pointerEvents=1;align=left;fontFamily=Arial;fontSize=11;" vertex="1" parent="Wmhno4PhPk1ZAHC8SjOo-11">
          <mxGeometry x="50" width="94" height="40" as="geometry">
            <mxRectangle width="94" height="40" as="alternateBounds" />
          </mxGeometry>
        </mxCell>
        <mxCell id="Wmhno4PhPk1ZAHC8SjOo-14" value="22157726_SDD.pdf" style="shape=partialRectangle;html=1;whiteSpace=wrap;connectable=0;strokeColor=inherit;overflow=hidden;fillColor=none;top=0;left=0;bottom=0;right=0;pointerEvents=1;align=left;fontFamily=Arial;fontSize=11;" vertex="1" parent="Wmhno4PhPk1ZAHC8SjOo-11">
          <mxGeometry x="144" width="106" height="40" as="geometry">
            <mxRectangle width="106" height="40" as="alternateBounds" />
          </mxGeometry>
        </mxCell>
        <mxCell id="Wmhno4PhPk1ZAHC8SjOo-15" value="TS-R1" style="shape=partialRectangle;html=1;whiteSpace=wrap;connectable=0;strokeColor=inherit;overflow=hidden;fillColor=none;top=0;left=0;bottom=0;right=0;pointerEvents=1;align=left;fontFamily=Arial;fontSize=11;" vertex="1" parent="Wmhno4PhPk1ZAHC8SjOo-11">
          <mxGeometry x="250" width="70" height="40" as="geometry">
            <mxRectangle width="70" height="40" as="alternateBounds" />
          </mxGeometry>
        </mxCell>
        <mxCell id="Wmhno4PhPk1ZAHC8SjOo-16" value="dashboard.test.ts" style="shape=partialRectangle;html=1;whiteSpace=wrap;connectable=0;strokeColor=inherit;overflow=hidden;fillColor=none;top=0;left=0;bottom=0;right=0;pointerEvents=1;align=left;fontFamily=Arial;fontSize=11;" vertex="1" parent="Wmhno4PhPk1ZAHC8SjOo-11">
          <mxGeometry x="320" width="145" height="40" as="geometry">
            <mxRectangle width="145" height="40" as="alternateBounds" />
          </mxGeometry>
        </mxCell>
        <mxCell id="Wmhno4PhPk1ZAHC8SjOo-17" value="Chris Ho" style="shape=partialRectangle;html=1;whiteSpace=wrap;connectable=0;strokeColor=inherit;overflow=hidden;fillColor=none;top=0;left=0;bottom=0;right=0;pointerEvents=1;align=left;fontFamily=Arial;fontSize=11;" vertex="1" parent="Wmhno4PhPk1ZAHC8SjOo-11">
          <mxGeometry x="465" width="85" height="40" as="geometry">
            <mxRectangle width="85" height="40" as="alternateBounds" />
          </mxGeometry>
        </mxCell>
        <mxCell id="Wmhno4PhPk1ZAHC8SjOo-18" value="917b4dca4" style="shape=partialRectangle;html=1;whiteSpace=wrap;connectable=0;strokeColor=inherit;overflow=hidden;fillColor=none;top=0;left=0;bottom=0;right=0;pointerEvents=1;align=left;fontFamily=Arial;fontSize=11;" vertex="1" parent="Wmhno4PhPk1ZAHC8SjOo-11">
          <mxGeometry x="550" width="120" height="40" as="geometry">
            <mxRectangle width="120" height="40" as="alternateBounds" />
          </mxGeometry>
        </mxCell>
        <mxCell id="Wmhno4PhPk1ZAHC8SjOo-19" value="" style="shape=tableRow;horizontal=0;startSize=0;swimlaneHead=0;swimlaneBody=0;strokeColor=inherit;top=0;left=0;bottom=0;right=0;collapsible=0;dropTarget=0;fillColor=none;points=[[0,0.5],[1,0.5]];portConstraint=eastwest;" vertex="1" parent="Wmhno4PhPk1ZAHC8SjOo-2">
          <mxGeometry y="80" width="670" height="40" as="geometry" />
        </mxCell>
        <mxCell id="Wmhno4PhPk1ZAHC8SjOo-20" value="REQ2" style="shape=partialRectangle;html=1;whiteSpace=wrap;connectable=0;strokeColor=inherit;overflow=hidden;fillColor=none;top=0;left=0;bottom=0;right=0;pointerEvents=1;align=left;fontFamily=Arial;fontSize=11;" vertex="1" parent="Wmhno4PhPk1ZAHC8SjOo-19">
          <mxGeometry width="50" height="40" as="geometry">
            <mxRectangle width="50" height="40" as="alternateBounds" />
          </mxGeometry>
        </mxCell>
        <mxCell id="Wmhno4PhPk1ZAHC8SjOo-21" value="Earn virtual rewards" style="shape=partialRectangle;html=1;whiteSpace=wrap;connectable=0;strokeColor=inherit;overflow=hidden;fillColor=none;top=0;left=0;bottom=0;right=0;pointerEvents=1;align=left;fontFamily=Arial;fontSize=11;" vertex="1" parent="Wmhno4PhPk1ZAHC8SjOo-19">
          <mxGeometry x="50" width="94" height="40" as="geometry">
            <mxRectangle width="94" height="40" as="alternateBounds" />
          </mxGeometry>
        </mxCell>
        <mxCell id="Wmhno4PhPk1ZAHC8SjOo-22" value="22157726_SDD.pdf" style="shape=partialRectangle;html=1;whiteSpace=wrap;connectable=0;strokeColor=inherit;overflow=hidden;fillColor=none;top=0;left=0;bottom=0;right=0;pointerEvents=1;align=left;fontFamily=Arial;fontSize=11;" vertex="1" parent="Wmhno4PhPk1ZAHC8SjOo-19">
          <mxGeometry x="144" width="106" height="40" as="geometry">
            <mxRectangle width="106" height="40" as="alternateBounds" />
          </mxGeometry>
        </mxCell>
        <mxCell id="Wmhno4PhPk1ZAHC8SjOo-23" value="TS-R2" style="shape=partialRectangle;html=1;whiteSpace=wrap;connectable=0;strokeColor=inherit;overflow=hidden;fillColor=none;top=0;left=0;bottom=0;right=0;pointerEvents=1;align=left;fontFamily=Arial;fontSize=11;" vertex="1" parent="Wmhno4PhPk1ZAHC8SjOo-19">
          <mxGeometry x="250" width="70" height="40" as="geometry">
            <mxRectangle width="70" height="40" as="alternateBounds" />
          </mxGeometry>
        </mxCell>
        <mxCell id="Wmhno4PhPk1ZAHC8SjOo-24" value="virtualrewards.test.js" style="shape=partialRectangle;html=1;whiteSpace=wrap;connectable=0;strokeColor=inherit;overflow=hidden;fillColor=none;top=0;left=0;bottom=0;right=0;pointerEvents=1;align=left;fontFamily=Arial;fontSize=11;" vertex="1" parent="Wmhno4PhPk1ZAHC8SjOo-19">
          <mxGeometry x="320" width="145" height="40" as="geometry">
            <mxRectangle width="145" height="40" as="alternateBounds" />
          </mxGeometry>
        </mxCell>
        <mxCell id="Wmhno4PhPk1ZAHC8SjOo-25" value="Chris Ho" style="shape=partialRectangle;html=1;whiteSpace=wrap;connectable=0;strokeColor=inherit;overflow=hidden;fillColor=none;top=0;left=0;bottom=0;right=0;pointerEvents=1;align=left;fontFamily=Arial;fontSize=11;" vertex="1" parent="Wmhno4PhPk1ZAHC8SjOo-19">
          <mxGeometry x="465" width="85" height="40" as="geometry">
            <mxRectangle width="85" height="40" as="alternateBounds" />
          </mxGeometry>
        </mxCell>
        <mxCell id="Wmhno4PhPk1ZAHC8SjOo-26" value="&lt;span style=&quot;line-height: 107%; font-family: Arial, sans-serif; color: rgb(38, 34, 35); vertical-align: baseline;&quot;&gt;&lt;font&gt;4fa28c1de&lt;/font&gt;&lt;/span&gt;" style="shape=partialRectangle;html=1;whiteSpace=wrap;connectable=0;strokeColor=inherit;overflow=hidden;fillColor=none;top=0;left=0;bottom=0;right=0;pointerEvents=1;align=left;fontFamily=Arial;fontSize=11;" vertex="1" parent="Wmhno4PhPk1ZAHC8SjOo-19">
          <mxGeometry x="550" width="120" height="40" as="geometry">
            <mxRectangle width="120" height="40" as="alternateBounds" />
          </mxGeometry>
        </mxCell>
        <mxCell id="Wmhno4PhPk1ZAHC8SjOo-27" value="" style="shape=tableRow;horizontal=0;startSize=0;swimlaneHead=0;swimlaneBody=0;strokeColor=inherit;top=0;left=0;bottom=0;right=0;collapsible=0;dropTarget=0;fillColor=none;points=[[0,0.5],[1,0.5]];portConstraint=eastwest;" vertex="1" parent="Wmhno4PhPk1ZAHC8SjOo-2">
          <mxGeometry y="120" width="670" height="40" as="geometry" />
        </mxCell>
        <mxCell id="Wmhno4PhPk1ZAHC8SjOo-28" value="REQ3" style="shape=partialRectangle;html=1;whiteSpace=wrap;connectable=0;strokeColor=inherit;overflow=hidden;fillColor=none;top=0;left=0;bottom=0;right=0;pointerEvents=1;align=left;fontFamily=Arial;fontSize=11;" vertex="1" parent="Wmhno4PhPk1ZAHC8SjOo-27">
          <mxGeometry width="50" height="40" as="geometry">
            <mxRectangle width="50" height="40" as="alternateBounds" />
          </mxGeometry>
        </mxCell>
        <mxCell id="Wmhno4PhPk1ZAHC8SjOo-29" value="View user data" style="shape=partialRectangle;html=1;whiteSpace=wrap;connectable=0;strokeColor=inherit;overflow=hidden;fillColor=none;top=0;left=0;bottom=0;right=0;pointerEvents=1;align=left;fontFamily=Arial;fontSize=11;" vertex="1" parent="Wmhno4PhPk1ZAHC8SjOo-27">
          <mxGeometry x="50" width="94" height="40" as="geometry">
            <mxRectangle width="94" height="40" as="alternateBounds" />
          </mxGeometry>
        </mxCell>
        <mxCell id="Wmhno4PhPk1ZAHC8SjOo-30" value="22157726_SDD.pdf" style="shape=partialRectangle;html=1;whiteSpace=wrap;connectable=0;strokeColor=inherit;overflow=hidden;fillColor=none;top=0;left=0;bottom=0;right=0;pointerEvents=1;align=left;fontFamily=Arial;fontSize=11;" vertex="1" parent="Wmhno4PhPk1ZAHC8SjOo-27">
          <mxGeometry x="144" width="106" height="40" as="geometry">
            <mxRectangle width="106" height="40" as="alternateBounds" />
          </mxGeometry>
        </mxCell>
        <mxCell id="Wmhno4PhPk1ZAHC8SjOo-31" value="TS-R3" style="shape=partialRectangle;html=1;whiteSpace=wrap;connectable=0;strokeColor=inherit;overflow=hidden;fillColor=none;top=0;left=0;bottom=0;right=0;pointerEvents=1;align=left;fontFamily=Arial;fontSize=11;" vertex="1" parent="Wmhno4PhPk1ZAHC8SjOo-27">
          <mxGeometry x="250" width="70" height="40" as="geometry">
            <mxRectangle width="70" height="40" as="alternateBounds" />
          </mxGeometry>
        </mxCell>
        <mxCell id="Wmhno4PhPk1ZAHC8SjOo-32" value="create_users_table.test.sql" style="shape=partialRectangle;html=1;whiteSpace=wrap;connectable=0;strokeColor=inherit;overflow=hidden;fillColor=none;top=0;left=0;bottom=0;right=0;pointerEvents=1;align=left;fontFamily=Arial;fontSize=11;" vertex="1" parent="Wmhno4PhPk1ZAHC8SjOo-27">
          <mxGeometry x="320" width="145" height="40" as="geometry">
            <mxRectangle width="145" height="40" as="alternateBounds" />
          </mxGeometry>
        </mxCell>
        <mxCell id="Wmhno4PhPk1ZAHC8SjOo-33" value="Chris Ho" style="shape=partialRectangle;html=1;whiteSpace=wrap;connectable=0;strokeColor=inherit;overflow=hidden;fillColor=none;top=0;left=0;bottom=0;right=0;pointerEvents=1;align=left;fontFamily=Arial;fontSize=11;" vertex="1" parent="Wmhno4PhPk1ZAHC8SjOo-27">
          <mxGeometry x="465" width="85" height="40" as="geometry">
            <mxRectangle width="85" height="40" as="alternateBounds" />
          </mxGeometry>
        </mxCell>
        <mxCell id="Wmhno4PhPk1ZAHC8SjOo-34" value="a1783e0f8" style="shape=partialRectangle;html=1;whiteSpace=wrap;connectable=0;strokeColor=inherit;overflow=hidden;fillColor=none;top=0;left=0;bottom=0;right=0;pointerEvents=1;align=left;fontFamily=Arial;fontSize=11;" vertex="1" parent="Wmhno4PhPk1ZAHC8SjOo-27">
          <mxGeometry x="550" width="120" height="40" as="geometry">
            <mxRectangle width="120" height="40" as="alternateBounds" />
          </mxGeometry>
        </mxCell>
        <mxCell id="Wmhno4PhPk1ZAHC8SjOo-35" value="" style="shape=tableRow;horizontal=0;startSize=0;swimlaneHead=0;swimlaneBody=0;strokeColor=inherit;top=0;left=0;bottom=0;right=0;collapsible=0;dropTarget=0;fillColor=none;points=[[0,0.5],[1,0.5]];portConstraint=eastwest;" vertex="1" parent="Wmhno4PhPk1ZAHC8SjOo-2">
          <mxGeometry y="160" width="670" height="40" as="geometry" />
        </mxCell>
        <mxCell id="Wmhno4PhPk1ZAHC8SjOo-36" value="REQ4" style="shape=partialRectangle;html=1;whiteSpace=wrap;connectable=0;strokeColor=inherit;overflow=hidden;fillColor=none;top=0;left=0;bottom=0;right=0;pointerEvents=1;align=left;fontFamily=Arial;fontSize=11;" vertex="1" parent="Wmhno4PhPk1ZAHC8SjOo-35">
          <mxGeometry width="50" height="40" as="geometry">
            <mxRectangle width="50" height="40" as="alternateBounds" />
          </mxGeometry>
        </mxCell>
        <mxCell id="Wmhno4PhPk1ZAHC8SjOo-37" value="Modify badges" style="shape=partialRectangle;html=1;whiteSpace=wrap;connectable=0;strokeColor=inherit;overflow=hidden;fillColor=none;top=0;left=0;bottom=0;right=0;pointerEvents=1;align=left;fontFamily=Arial;fontSize=11;" vertex="1" parent="Wmhno4PhPk1ZAHC8SjOo-35">
          <mxGeometry x="50" width="94" height="40" as="geometry">
            <mxRectangle width="94" height="40" as="alternateBounds" />
          </mxGeometry>
        </mxCell>
        <mxCell id="Wmhno4PhPk1ZAHC8SjOo-38" value="22157726_SDD.pdf" style="shape=partialRectangle;html=1;whiteSpace=wrap;connectable=0;strokeColor=inherit;overflow=hidden;fillColor=none;top=0;left=0;bottom=0;right=0;pointerEvents=1;align=left;fontFamily=Arial;fontSize=11;" vertex="1" parent="Wmhno4PhPk1ZAHC8SjOo-35">
          <mxGeometry x="144" width="106" height="40" as="geometry">
            <mxRectangle width="106" height="40" as="alternateBounds" />
          </mxGeometry>
        </mxCell>
        <mxCell id="Wmhno4PhPk1ZAHC8SjOo-39" value="TS-R4" style="shape=partialRectangle;html=1;whiteSpace=wrap;connectable=0;strokeColor=inherit;overflow=hidden;fillColor=none;top=0;left=0;bottom=0;right=0;pointerEvents=1;align=left;fontFamily=Arial;fontSize=11;" vertex="1" parent="Wmhno4PhPk1ZAHC8SjOo-35">
          <mxGeometry x="250" width="70" height="40" as="geometry">
            <mxRectangle width="70" height="40" as="alternateBounds" />
          </mxGeometry>
        </mxCell>
        <mxCell id="Wmhno4PhPk1ZAHC8SjOo-40" value="badgeService.test.ts" style="shape=partialRectangle;html=1;whiteSpace=wrap;connectable=0;strokeColor=inherit;overflow=hidden;fillColor=none;top=0;left=0;bottom=0;right=0;pointerEvents=1;align=left;fontFamily=Arial;fontSize=11;" vertex="1" parent="Wmhno4PhPk1ZAHC8SjOo-35">
          <mxGeometry x="320" width="145" height="40" as="geometry">
            <mxRectangle width="145" height="40" as="alternateBounds" />
          </mxGeometry>
        </mxCell>
        <mxCell id="Wmhno4PhPk1ZAHC8SjOo-41" value="Chris Ho" style="shape=partialRectangle;html=1;whiteSpace=wrap;connectable=0;strokeColor=inherit;overflow=hidden;fillColor=none;top=0;left=0;bottom=0;right=0;pointerEvents=1;align=left;fontFamily=Arial;fontSize=11;" vertex="1" parent="Wmhno4PhPk1ZAHC8SjOo-35">
          <mxGeometry x="465" width="85" height="40" as="geometry">
            <mxRectangle width="85" height="40" as="alternateBounds" />
          </mxGeometry>
        </mxCell>
        <mxCell id="Wmhno4PhPk1ZAHC8SjOo-42" value="Pending" style="shape=partialRectangle;html=1;whiteSpace=wrap;connectable=0;strokeColor=inherit;overflow=hidden;fillColor=none;top=0;left=0;bottom=0;right=0;pointerEvents=1;align=left;fontFamily=Arial;fontSize=11;" vertex="1" parent="Wmhno4PhPk1ZAHC8SjOo-35">
          <mxGeometry x="550" width="120" height="40" as="geometry">
            <mxRectangle width="120" height="40" as="alternateBounds" />
          </mxGeometry>
        </mxCell>
        <mxCell id="Wmhno4PhPk1ZAHC8SjOo-45" value="917b4dca4" style="text;whiteSpace=wrap;html=1;" vertex="1" parent="1">
          <mxGeometry x="890" y="680" width="90" height="40" as="geometry" />
        </mxCell>
      </root>
    </mxGraphModel>
  </diagram>
</mxfile>
